<?xml version="1.0" standalone="no"?>
<!DOCTYPE svg PUBLIC "-//W3C//DTD SVG 20010904//EN"
 "http://www.w3.org/TR/2001/REC-SVG-20010904/DTD/svg10.dtd">
<svg version="1.0" xmlns="http://www.w3.org/2000/svg"
 width="232.000000pt" height="232.000000pt" viewBox="0 0 232.000000 232.000000"
 preserveAspectRatio="xMidYMid meet">
<metadata>
Created by potrace 1.11, written by Peter Selinger 2001-2013
</metadata>
<g transform="translate(0.000000,232.000000) scale(0.100000,-0.100000)"
fill="#000000" stroke="none">
<path d="M1448 2279 c-117 -39 -207 -101 -338 -230 -172 -169 -353 -283 -675
-423 -101 -45 -188 -93 -212 -118 -35 -37 -35 -81 1 -116 24 -24 35 -27 113
-31 47 -2 121 2 162 9 122 19 469 106 626 158 284 93 670 301 650 350 -18 43
-25 95 -25 197 0 126 -13 165 -69 202 -44 30 -149 31 -233 2z"/>
<path d="M1715 1714 c-300 -185 -698 -333 -1065 -395 -52 -9 -277 -39 -292
-39 -13 0 -9 -35 8 -58 19 -27 49 -28 195 -7 320 46 570 112 819 217 163 69
390 197 433 246 19 21 21 83 2 89 -5 1 -50 -22 -100 -53z"/>
<path d="M1782 1541 c-146 -135 -666 -314 -1168 -403 -142 -26 -132 -18 -167
-133 l-16 -50 6 83 6 82 -30 0 c-36 0 -40 -10 -49 -120 -10 -118 21 -311 78
-475 33 -96 63 -141 110 -164 44 -20 188 -61 358 -101 132 -30 577 -138 621
-150 20 -6 95 -10 166 -10 171 0 166 -4 219 225 26 112 42 255 30 255 -4 0
-25 -14 -46 -31 -34 -28 -49 -33 -112 -37 -212 -13 -598 70 -843 182 -93 43
-142 88 -177 161 -22 48 -28 74 -28 129 0 64 2 70 34 102 30 30 40 34 85 34
27 0 74 -9 103 -19 147 -53 336 -61 518 -22 303 66 469 132 554 221 81 84 84
151 10 209 -33 26 -125 60 -178 67 -37 4 -45 1 -84 -35z"/>
<path d="M1765 1112 c-27 -9 -52 -17 -54 -18 -1 -2 11 -45 28 -96 39 -117 58
-215 67 -346 8 -118 11 -120 87 -72 29 18 49 39 53 55 17 67 -34 290 -93 413
l-38 79 -50 -15z"/>
<path d="M812 1074 c-108 -75 -41 -259 125 -342 81 -41 336 -123 486 -156 27
-6 27 -6 27 41 0 97 -36 257 -81 363 l-19 45 -87 -4 c-101 -4 -196 10 -308 44
-94 29 -113 30 -143 9z"/>
<path d="M1473 1028 c3 -13 19 -67 36 -121 21 -66 34 -139 43 -227 12 -128 12
-130 36 -130 l25 0 -7 103 c-10 147 -22 216 -57 312 -28 76 -34 85 -56 85 -21
0 -24 -4 -20 -22z"/>
</g>
</svg>
